<svg aria-hidden="true" style="position: absolute; width: 0; height: 0; overflow: hidden;" version="1.1" xmlns="http://www.w3.org/2000/svg" xmlns:xlink="http://www.w3.org/1999/xlink">
<defs>
<symbol id="icon-Vector" viewBox="0 0 40 32">
<path fill="#f4f4fd" style="fill: var(--color1, #f4f4fd)" d="M33.843 1.958c0.657-0.578 1.532-0.897 2.44-0.891s1.777 0.338 2.425 0.925c0.648 0.587 1.023 1.383 1.047 2.221s-0.305 1.651-0.919 2.269l-18.62 21.495c-0.32 0.318-0.707 0.574-1.136 0.751s-0.893 0.273-1.364 0.281c-0.47 0.008-0.938-0.072-1.374-0.234s-0.833-0.405-1.166-0.712l-12.348-11.398c-0.344-0.296-0.62-0.652-0.811-1.049s-0.294-0.824-0.302-1.258c-0.008-0.434 0.078-0.865 0.254-1.267s0.438-0.768 0.77-1.075 0.728-0.549 1.164-0.711c0.436-0.162 0.903-0.242 1.373-0.235s0.933 0.103 1.363 0.279c0.429 0.177 0.816 0.431 1.136 0.749l9.772 9.016 16.207-19.062c0.029-0.033 0.060-0.065 0.093-0.095h-0.005z"></path>
</symbol>
<symbol id="icon-icon-send" viewBox="0 0 38 32">
<path fill="#fff" style="fill: var(--color2, #fff)" d="M38.4 0l-38.4 18 12.272 3.788 18.928-14.788-14.397 16.186 0.012 0.004-0.014-0.004v8.814l6.882-6.691 8.718 2.691 6-28z"></path>
</symbol>
<symbol id="icon-Ellipse-1" viewBox="0 0 32 32">
<path fill="#e7e9fc" style="fill: var(--color3, #e7e9fc)" d="M31.096 16.009c0 8.367-6.793 15.15-15.172 15.15s-15.172-6.783-15.172-15.15c0-8.367 6.793-15.15 15.172-15.15s15.172 6.783 15.172 15.15z"></path>
<path fill="none" stroke="#000" style="stroke: var(--color4, #000)" stroke-linejoin="miter" stroke-linecap="butt" stroke-miterlimit="4" stroke-width="1.28" d="M30.456 16.009c0 8.013-6.505 14.51-14.532 14.51-8.026 0-14.532-6.497-14.532-14.51s6.505-14.51 14.532-14.51c8.026 0 14.532 6.497 14.532 14.51z"></path>
</symbol>
<symbol id="icon-email-black" viewBox="0 0 39 32">
<path d="M33.737 1.146h-29.538c-2.031 0-3.674 1.662-3.674 3.692l-0.018 22.154c0 2.031 1.662 3.692 3.692 3.692h29.538c2.031 0 3.692-1.662 3.692-3.692v-22.154c0-2.031-1.662-3.692-3.692-3.692zM32.999 8.992l-13.052 8.16c-0.591 0.369-1.366 0.369-1.957 0l-13.052-8.16c-0.462-0.295-0.738-0.794-0.738-1.329 0-1.237 1.348-1.975 2.4-1.329l12.369 7.735 12.369-7.735c1.052-0.646 2.4 0.092 2.4 1.329 0 0.535-0.277 1.034-0.738 1.329z"></path>
</symbol>
<symbol id="icon-modal-close" viewBox="0 0 32 32">
<path d="M29.839 4.822l-2.83-2.825-11.218 11.202-11.218-11.202-2.83 2.825 11.218 11.202-11.218 11.202 2.83 2.826 11.218-11.202 11.218 11.202 2.83-2.826-11.218-11.202 11.218-11.202z"></path>
</symbol>
<symbol id="icon-person-black" viewBox="0 0 32 32">
<path fill="#4d5ae5" style="fill: var(--color5, #4d5ae5)" d="M16.507 15.916c4.080 0 7.385-3.305 7.385-7.385s-3.305-7.385-7.385-7.385c-4.080 0-7.385 3.305-7.385 7.385s3.305 7.385 7.385 7.385zM16.507 19.608c-4.929 0-14.769 2.474-14.769 7.385v1.846c0 1.015 0.831 1.846 1.846 1.846h25.846c1.015 0 1.846-0.831 1.846-1.846v-1.846c0-4.911-9.84-7.385-14.769-7.385z"></path>
</symbol>
<symbol id="icon-phone-black" viewBox="0 0 32 32">
<path d="M28.416 21.328l-4.202-0.48c-1.009-0.116-2.001 0.232-2.713 0.943l-3.044 3.044c-4.681-2.382-8.519-6.203-10.901-10.901l3.060-3.060c0.711-0.711 1.059-1.704 0.943-2.713l-0.48-4.168c-0.198-1.671-1.604-2.928-3.292-2.928h-2.862c-1.869 0-3.424 1.555-3.308 3.424 0.877 14.126 12.174 25.407 26.284 26.284 1.869 0.116 3.424-1.439 3.424-3.308v-2.862c0.017-1.671-1.24-3.077-2.911-3.275z"></path>
</symbol>
</defs>
</svg>
